<?xml version="1.0" encoding="UTF-8" standalone="no"?>
<svg
   width="107.52155mm"
   height="15.566452mm"
   version="1.1"
   id="svg5"
   xmlnsSvg="http://www.w3.org/2000/svg"
   xmlns="http://www.w3.org/2000/svg">
  <defs
     id="defs2" />
  <g
     id="layer1"
     transform="matrix(3.7807124,0,0,3.7807124,-165.44455,-342.67977)">
    <path
       d="m 56.230031,96.867685 q 0,0.71658 -0.09922,1.499307 -0.09922,0.771702 -0.319705,1.554429 -0.209462,0.771699 -0.551216,1.521359 -0.341753,0.74965 -0.837848,1.43316 -0.48507,0.67248 -1.135504,1.24575 -0.639411,0.57326 -1.466234,0.99218 -0.826824,0.41893 -1.841061,0.65044 -1.014237,0.23151 -2.436374,0.23151 H 44.37889 q -0.143316,0 -0.275608,-0.0331 -0.121268,-0.0441 -0.209462,-0.1323 -0.0882,-0.0882 -0.121268,-0.23151 -0.03307,-0.15434 0.02205,-0.37482 l 2.535593,-12.722065 q 0.07717,-0.429948 0.330729,-0.595313 0.264584,-0.176389 0.595313,-0.176389 h 3.009639 q 1.642623,0 2.723006,0.352778 1.080383,0.341754 1.796964,1.003213 0.727605,0.661459 1.080383,1.620575 0.363802,0.948091 0.363802,2.160766 z m -2.006425,0.165365 q 0,-0.8158 -0.231511,-1.499308 -0.220486,-0.683507 -0.705556,-1.168577 -0.48507,-0.496094 -1.245748,-0.771702 Q 51.291137,93.30683 50.04539,93.30683 h -1.984377 l -2.215888,11.10149 h 1.962328 q 1.344967,0 2.248961,-0.31971 0.903994,-0.33073 1.598526,-0.88194 0.694532,-0.56224 1.179602,-1.30087 0.48507,-0.73863 0.793751,-1.55443 0.30868,-0.815801 0.451997,-1.664673 0.143316,-0.859897 0.143316,-1.653647 z"
       id="path612"
       style="fill:#ffffff" />
    <path
       d="m 66.857473,97.8268 q 0,0.760678 -0.352778,1.367016 -0.352778,0.606337 -1.102432,1.036284 -0.749654,0.42995 -1.918231,0.66146 -1.168578,0.23151 -2.800177,0.23151 h -1.168577 q -0.07717,0.3638 -0.110243,0.70556 -0.02205,0.34175 -0.02205,0.63941 0,1.10243 0.540192,1.68672 0.551215,0.58429 1.774915,0.58429 0.705556,0 1.267796,-0.0992 0.56224,-0.11025 0.97014,-0.23151 0.418924,-0.12127 0.683508,-0.22049 0.264583,-0.11024 0.363802,-0.11024 0.09922,0 0.143316,0.0772 0.05512,0.0661 0.05512,0.19844 0,0.11024 -0.02205,0.26458 -0.02205,0.15434 -0.06615,0.3197 -0.0441,0.15435 -0.121267,0.29766 -0.06615,0.14332 -0.154341,0.24254 -0.132292,0.13229 -0.474045,0.26458 -0.33073,0.12127 -0.793751,0.23151 -0.463022,0.0992 -1.014237,0.16537 -0.551216,0.0661 -1.102432,0.0661 -0.981164,0 -1.719793,-0.22049 -0.73863,-0.22048 -1.234724,-0.67248 -0.48507,-0.46302 -0.727605,-1.14653 -0.242535,-0.68351 -0.242535,-1.60955 0,-0.71658 0.132292,-1.53238 0.143316,-0.82682 0.440973,-1.631597 0.297656,-0.804775 0.771702,-1.543404 0.474045,-0.738629 1.12448,-1.300869 0.661459,-0.562241 1.521356,-0.903994 0.859897,-0.341754 1.94028,-0.341754 0.926042,0 1.565453,0.23151 0.650434,0.231511 1.058334,0.595314 0.418924,0.363802 0.606337,0.815799 0.187414,0.440973 0.187414,0.881945 z m -1.86311,0.165365 q 0,-0.56224 -0.440972,-0.903994 -0.440973,-0.352778 -1.256772,-0.352778 -0.716581,0 -1.267797,0.253559 -0.551216,0.242535 -0.981164,0.661459 -0.418924,0.418924 -0.727605,0.981164 -0.297657,0.551216 -0.48507,1.168578 h 1.12448 q 1.157554,0 1.929256,-0.143316 0.782726,-0.143316 1.245748,-0.385851 0.474045,-0.253559 0.661459,-0.584289 0.198437,-0.330729 0.198437,-0.694532 z"
       id="path614"
       style="fill:#ffffff" />
    <path
       d="m 77.848716,97.992165 q 0,0.385851 -0.0441,0.760678 -0.0441,0.374827 -0.121268,0.771702 l -1.245747,6.195665 q -0.02205,0.0882 -0.07717,0.15434 -0.0441,0.0551 -0.165364,0.0992 -0.110244,0.0441 -0.286633,0.0661 -0.176389,0.022 -0.451997,0.022 -0.264583,0 -0.440972,-0.022 -0.165365,-0.022 -0.264584,-0.0661 -0.08819,-0.0441 -0.121267,-0.0992 -0.02205,-0.0661 -0.01103,-0.15434 l 1.223699,-6.129519 q 0.07717,-0.341754 0.09922,-0.661459 0.03307,-0.319705 0.03307,-0.56224 0,-0.672483 -0.286632,-1.080383 -0.286632,-0.418924 -0.959116,-0.418924 -0.584288,0 -1.20165,0.341754 -0.606338,0.330729 -1.135505,0.926042 -0.518143,0.584289 -0.937067,1.400088 -0.407899,0.804771 -0.595313,1.752871 l -0.881945,4.43177 q -0.02205,0.0882 -0.07717,0.15434 -0.05512,0.0551 -0.165365,0.0992 -0.110243,0.0441 -0.297657,0.0661 -0.176389,0.022 -0.440972,0.022 -0.275608,0 -0.451997,-0.022 -0.165365,-0.022 -0.264584,-0.0661 -0.08819,-0.0441 -0.121267,-0.0992 -0.02205,-0.0661 0,-0.15434 l 1.995401,-9.932908 q 0.01102,-0.07717 0.05512,-0.143316 0.05512,-0.06615 0.15434,-0.110244 0.110243,-0.0441 0.264584,-0.05512 0.165364,-0.02205 0.385851,-0.02205 0.23151,0 0.374826,0.02205 0.154341,0.01102 0.231511,0.05512 0.08819,0.0441 0.110243,0.110244 0.02205,0.06615 0.01103,0.143316 l -0.374827,1.896182 q 0.165365,-0.374827 0.540191,-0.793751 0.374827,-0.418924 0.89297,-0.771702 0.518143,-0.352778 1.135505,-0.584289 0.628386,-0.23151 1.300869,-0.23151 0.738629,0 1.234723,0.23151 0.496095,0.220487 0.804776,0.595314 0.30868,0.363802 0.440972,0.848872 0.132292,0.48507 0.132292,1.014237 z"
       id="path616"
       style="fill:#ffffff" />
    <path
       d="m 86.64612,95.908569 q 0,0.09922 -0.01102,0.220487 -0.01102,0.110243 -0.0441,0.23151 -0.03307,0.121268 -0.08819,0.242535 -0.05512,0.121268 -0.121267,0.220487 -0.05512,0.08819 -0.132292,0.143316 -0.07717,0.05512 -0.176389,0.05512 h -2.535593 l -1.113456,5.534206 q -0.0441,0.23151 -0.07717,0.51815 -0.03307,0.28663 -0.03307,0.47404 0,0.56224 0.231511,0.82682 0.242534,0.25356 0.771702,0.25356 0.297656,0 0.518143,-0.0441 0.220486,-0.0551 0.374826,-0.11025 0.165365,-0.0551 0.286633,-0.0992 0.121267,-0.0551 0.209462,-0.0551 0.08819,0 0.132291,0.0661 0.05512,0.0551 0.05512,0.22049 0,0.14331 -0.03307,0.3197 -0.02205,0.16537 -0.06615,0.33073 -0.0441,0.16536 -0.110243,0.29766 -0.06615,0.13229 -0.143316,0.20946 -0.08819,0.0772 -0.264584,0.15434 -0.176389,0.0772 -0.407899,0.13229 -0.231511,0.0662 -0.496095,0.0992 -0.253559,0.0331 -0.507118,0.0331 -0.617362,0 -1.069359,-0.13229 -0.451997,-0.13229 -0.760678,-0.4079 -0.308681,-0.28663 -0.463021,-0.70556 -0.143316,-0.42994 -0.143316,-1.02526 0,-0.13229 0.01102,-0.28663 0.01102,-0.16536 0.03307,-0.34175 0.03307,-0.17639 0.05512,-0.35278 0.03307,-0.17639 0.06615,-0.33073 l 1.113456,-5.578306 h -1.378039 q -0.121268,0 -0.187414,-0.06615 -0.06615,-0.07717 -0.06615,-0.286632 0,-0.15434 0.03307,-0.352778 0.03307,-0.209462 0.09922,-0.385851 0.06615,-0.176389 0.165365,-0.297657 0.110243,-0.121267 0.253559,-0.121267 h 1.389064 l 0.474046,-2.359204 q 0.01102,-0.07717 0.06615,-0.143316 0.06615,-0.06615 0.176389,-0.110243 0.110243,-0.05512 0.286632,-0.07717 0.187414,-0.02205 0.451997,-0.02205 0.264584,0 0.429948,0.02205 0.17639,0.02205 0.264584,0.07717 0.09922,0.0441 0.121268,0.110243 0.03307,0.06615 0.02205,0.143316 l -0.474045,2.359204 h 2.535592 q 0.165365,0 0.220487,0.121267 0.05512,0.121268 0.05512,0.275608 z"
       id="path618"
       style="fill:#ffffff" />
    <path
       d="m 103.2267,95.081745 q 0,0.584289 -0.14332,1.2237 -0.13229,0.63941 -0.42995,1.256772 -0.29766,0.606337 -0.76068,1.157553 -0.45199,0.540192 -1.10243,0.959116 -0.65043,0.418924 -1.499306,0.661454 -0.837848,0.23152 -1.984377,0.23152 h -1.962328 l -1.025262,5.14835 q -0.02205,0.0772 -0.07717,0.14332 -0.05512,0.0661 -0.187413,0.11024 -0.121268,0.0331 -0.308681,0.0551 -0.176389,0.0331 -0.451997,0.0331 -0.253559,0 -0.429948,-0.022 -0.176389,-0.022 -0.286633,-0.0551 -0.09922,-0.0441 -0.143316,-0.11024 -0.03307,-0.0661 -0.01102,-0.15434 l 2.623787,-13.174057 q 0.08819,-0.440973 0.363803,-0.628386 0.275608,-0.187414 0.63941,-0.187414 h 2.811201 q 0.551216,0 0.97014,0.0441 0.42994,0.03307 0.82682,0.121268 0.59531,0.132292 1.06936,0.4079 0.48507,0.275608 0.8158,0.683507 0.33073,0.396876 0.50712,0.926043 0.17639,0.529167 0.17639,1.168577 z m -2.00643,0.198438 q 0,-0.683507 -0.34175,-1.168577 -0.33073,-0.496095 -1.03629,-0.694532 -0.264583,-0.07717 -0.584289,-0.09922 -0.319705,-0.02205 -0.683507,-0.02205 h -1.78594 l -1.12448,5.721621 h 1.796964 q 0.782726,0 1.322918,-0.176389 0.540191,-0.17639 0.948091,-0.463022 0.407903,-0.286632 0.683503,-0.672483 0.28664,-0.385851 0.46303,-0.793751 0.17638,-0.418924 0.25356,-0.837848 0.0882,-0.429948 0.0882,-0.793751 z"
       id="path620"
       style="fill:#ffffff" />
    <path
       d="m 108.55144,92.457958 q -0.0551,0.308681 -0.15434,0.518143 -0.0882,0.209462 -0.24254,0.341754 -0.15434,0.121267 -0.38585,0.176389 -0.23151,0.05512 -0.56224,0.05512 -0.3197,0 -0.52916,-0.05512 -0.20947,-0.05512 -0.30868,-0.176389 -0.0992,-0.132292 -0.11025,-0.341754 -0.011,-0.209462 0.0441,-0.518143 0.0661,-0.308681 0.16536,-0.507118 0.0992,-0.209462 0.24254,-0.341754 0.15434,-0.143316 0.38585,-0.187414 0.23151,-0.05512 0.56224,-0.05512 0.31971,0 0.51814,0.05512 0.20947,0.0441 0.30868,0.187414 0.11025,0.132292 0.12127,0.341754 0.011,0.198437 -0.0551,0.507118 z m -2.8553,13.262252 q -0.022,0.0882 -0.0772,0.15434 -0.0551,0.0551 -0.16536,0.0992 -0.11025,0.0441 -0.29766,0.0661 -0.17639,0.022 -0.44097,0.022 -0.27561,0 -0.452,-0.022 -0.16536,-0.022 -0.26458,-0.0661 -0.0882,-0.0441 -0.12127,-0.0992 -0.022,-0.0661 0,-0.15434 l 1.97335,-9.921884 q 0.011,-0.07717 0.0661,-0.143316 0.0551,-0.06615 0.16536,-0.110243 0.11025,-0.0441 0.28664,-0.06615 0.18741,-0.02205 0.46302,-0.02205 0.26458,0 0.42995,0.02205 0.17638,0.02205 0.26458,0.06615 0.0992,0.0441 0.12127,0.110243 0.0331,0.06615 0.022,0.143316 z"
       id="path622"
       style="fill:#ffffff" />
    <path
       d="m 110.87757,105.72021 q -0.0221,0.0882 -0.0772,0.15434 -0.0551,0.0551 -0.16536,0.0992 -0.11025,0.0441 -0.29766,0.0661 -0.17639,0.022 -0.44097,0.022 -0.27561,0 -0.452,-0.022 -0.16536,-0.022 -0.26458,-0.0661 -0.0882,-0.0441 -0.12127,-0.0992 -0.022,-0.0661 0,-0.15434 L 111.991,90.991724 q 0.0221,-0.08819 0.0661,-0.15434 0.0551,-0.06615 0.16537,-0.110244 0.12127,-0.0441 0.29766,-0.06615 0.18741,-0.02205 0.46302,-0.02205 0.26458,0 0.42995,0.02205 0.17638,0.02205 0.26458,0.06615 0.0992,0.0441 0.12127,0.110244 0.0221,0.06615 0.011,0.15434 z"
       id="path624"
       style="fill:#ffffff" />
    <path
       d="m 123.7209,97.8268 q 0,0.760678 -0.35278,1.367016 -0.35278,0.606337 -1.10243,1.036284 -0.74965,0.42995 -1.91823,0.66146 -1.16858,0.23151 -2.80018,0.23151 h -1.16857 q -0.0772,0.3638 -0.11025,0.70556 -0.0221,0.34175 -0.0221,0.63941 0,1.10243 0.54019,1.68672 0.55122,0.58429 1.77492,0.58429 0.70556,0 1.2678,-0.0992 0.56224,-0.11025 0.97014,-0.23151 0.41892,-0.12127 0.6835,-0.22049 0.26459,-0.11024 0.36381,-0.11024 0.0992,0 0.14331,0.0772 0.0551,0.0661 0.0551,0.19844 0,0.11024 -0.022,0.26458 -0.0221,0.15434 -0.0662,0.3197 -0.0441,0.15435 -0.12127,0.29766 -0.0661,0.14332 -0.15434,0.24254 -0.13229,0.13229 -0.47404,0.26458 -0.33073,0.12127 -0.79376,0.23151 -0.46302,0.0992 -1.01423,0.16537 -0.55122,0.0661 -1.10243,0.0661 -0.98117,0 -1.7198,-0.22049 -0.73863,-0.22048 -1.23472,-0.67248 -0.48507,-0.46302 -0.72761,-1.14653 -0.24253,-0.68351 -0.24253,-1.60955 0,-0.71658 0.13229,-1.53238 0.14332,-0.82682 0.44097,-1.631597 0.29766,-0.804775 0.77171,-1.543404 0.47404,-0.738629 1.12448,-1.300869 0.66146,-0.562241 1.52135,-0.903994 0.8599,-0.341754 1.94028,-0.341754 0.92604,0 1.56545,0.23151 0.65044,0.231511 1.05834,0.595314 0.41892,0.363802 0.60634,0.815799 0.18741,0.440973 0.18741,0.881945 z m -1.86311,0.165365 q 0,-0.56224 -0.44097,-0.903994 -0.44097,-0.352778 -1.25677,-0.352778 -0.71658,0 -1.2678,0.253559 -0.55122,0.242535 -0.98116,0.661459 -0.41893,0.418924 -0.72761,0.981164 -0.29766,0.551216 -0.48507,1.168578 h 1.12448 q 1.15755,0 1.92926,-0.143316 0.78272,-0.143316 1.24574,-0.385851 0.47405,-0.253559 0.66146,-0.584289 0.19844,-0.330729 0.19844,-0.694532 z"
       id="path626"
       style="fill:#ffffff" />
    <path
       d="m 132.00016,95.908569 q 0,0.09922 -0.011,0.220487 -0.011,0.110243 -0.0441,0.23151 -0.0331,0.121268 -0.0882,0.242535 -0.0551,0.121268 -0.12127,0.220487 -0.0551,0.08819 -0.13229,0.143316 -0.0772,0.05512 -0.17639,0.05512 h -2.53559 l -1.11346,5.534206 q -0.0441,0.23151 -0.0772,0.51815 -0.0331,0.28663 -0.0331,0.47404 0,0.56224 0.23151,0.82682 0.24253,0.25356 0.7717,0.25356 0.29766,0 0.51814,-0.0441 0.22049,-0.0551 0.37483,-0.11025 0.16536,-0.0551 0.28663,-0.0992 0.12127,-0.0551 0.20946,-0.0551 0.0882,0 0.13229,0.0661 0.0551,0.0551 0.0551,0.22049 0,0.14331 -0.0331,0.3197 -0.0221,0.16537 -0.0661,0.33073 -0.0441,0.16536 -0.11025,0.29766 -0.0661,0.13229 -0.14331,0.20946 -0.0882,0.0772 -0.26459,0.15434 -0.17638,0.0772 -0.4079,0.13229 -0.23151,0.0662 -0.49609,0.0992 -0.25356,0.0331 -0.50712,0.0331 -0.61736,0 -1.06936,-0.13229 -0.45199,-0.13229 -0.76067,-0.4079 -0.30869,-0.28663 -0.46303,-0.70556 -0.14331,-0.42994 -0.14331,-1.02526 0,-0.13229 0.011,-0.28663 0.011,-0.16536 0.0331,-0.34175 0.0331,-0.17639 0.0551,-0.35278 0.0331,-0.17639 0.0661,-0.33073 l 1.11346,-5.578306 h -1.37804 q -0.12127,0 -0.18741,-0.06615 -0.0661,-0.07717 -0.0661,-0.286632 0,-0.15434 0.0331,-0.352778 0.0331,-0.209462 0.0992,-0.385851 0.0662,-0.176389 0.16537,-0.297657 0.11024,-0.121267 0.25356,-0.121267 h 1.38906 l 0.47404,-2.359204 q 0.011,-0.07717 0.0661,-0.143316 0.0662,-0.06615 0.17639,-0.110243 0.11024,-0.05512 0.28663,-0.07717 0.18742,-0.02205 0.452,-0.02205 0.26458,0 0.42995,0.02205 0.17639,0.02205 0.26458,0.07717 0.0992,0.0441 0.12127,0.110243 0.0331,0.06615 0.0221,0.143316 l -0.47405,2.359204 h 2.53559 q 0.16537,0 0.22049,0.121267 0.0551,0.121268 0.0551,0.275608 z"
       id="path628"
       style="fill:#ffffff" />
    <path
       d="m 140.38966,105.72021 q -0.0441,0.18741 -0.24253,0.26458 -0.19844,0.0772 -0.66146,0.0772 -0.22049,0 -0.3638,-0.022 -0.14332,-0.022 -0.23151,-0.0551 -0.0882,-0.0441 -0.12127,-0.0992 -0.0331,-0.0662 0,-0.16537 l 0.3638,-1.87413 q -0.14331,0.35278 -0.51814,0.7717 -0.37483,0.41892 -0.89297,0.7717 -0.50712,0.35278 -1.1355,0.58429 -0.62839,0.23151 -1.27883,0.23151 -0.88194,0 -1.46623,-0.30868 -0.57326,-0.30868 -0.91502,-0.8158 -0.34175,-0.50712 -0.47404,-1.14653 -0.12127,-0.63941 -0.12127,-1.31189 0,-0.61736 0.11024,-1.40009 0.12127,-0.78273 0.37483,-1.598526 0.26458,-0.815799 0.67248,-1.587502 0.41893,-0.771702 1.00322,-1.378039 0.58428,-0.617362 1.35599,-0.981164 0.7717,-0.374827 1.75286,-0.374827 0.98117,0 1.6757,0.396875 0.70556,0.396876 1.25677,1.091408 l 0.20946,-1.003213 q 0.0441,-0.176389 0.25356,-0.25356 0.20946,-0.07717 0.65044,-0.07717 0.22048,0 0.3638,0.02205 0.15434,0.01102 0.24253,0.05512 0.0882,0.0441 0.11025,0.110244 0.0221,0.06615 0.011,0.143316 z m -0.34175,-7.331169 q -0.51814,-0.760678 -1.12448,-1.135505 -0.59531,-0.385851 -1.34497,-0.385851 -0.59531,0 -1.08038,0.286632 -0.47404,0.275608 -0.84887,0.738629 -0.3638,0.463022 -0.63941,1.058335 -0.26459,0.584288 -0.44097,1.212679 -0.16537,0.62838 -0.25356,1.23472 -0.0772,0.60634 -0.0772,1.09141 0,0.38585 0.0551,0.7717 0.0661,0.37483 0.23151,0.69453 0.17639,0.30868 0.47404,0.50712 0.29766,0.18741 0.77171,0.18741 0.60633,0 1.21267,-0.33073 0.61736,-0.34175 1.14653,-0.93706 0.52917,-0.59532 0.93707,-1.40009 0.4079,-0.80478 0.60633,-1.77492 z"
       id="path630"
       style="fill:#ffffff" />
    <path
       d="m 151.28169,96.338518 q 0,0.110243 -0.0331,0.297656 -0.0331,0.176389 -0.0992,0.352778 -0.0551,0.176389 -0.14332,0.297657 -0.0772,0.121267 -0.17639,0.121267 -0.13229,0 -0.3197,-0.09922 -0.17639,-0.110243 -0.44098,-0.242534 -0.26458,-0.132292 -0.63941,-0.242535 -0.3638,-0.110244 -0.87092,-0.110244 -0.48507,0 -0.85989,0.143316 -0.37483,0.132292 -0.62839,0.374827 -0.25356,0.231511 -0.38585,0.540192 -0.13229,0.297656 -0.13229,0.628386 0,0.440973 0.28663,0.738629 0.29766,0.286632 0.73863,0.518143 0.44097,0.231511 0.94809,0.463024 0.51814,0.22048 0.94809,0.55121 0.44097,0.31971 0.72761,0.78273 0.29765,0.452 0.29765,1.14653 0,0.7717 -0.30868,1.44419 -0.29766,0.66145 -0.87092,1.14652 -0.56224,0.47405 -1.36701,0.74966 -0.80478,0.26458 -1.79697,0.26458 -0.51814,0 -0.98116,-0.0772 -0.452,-0.0772 -0.82683,-0.19844 -0.3638,-0.12126 -0.62838,-0.26458 -0.26459,-0.15434 -0.4079,-0.28663 -0.0882,-0.0882 -0.13229,-0.17639 -0.0331,-0.0992 -0.0331,-0.23151 0,-0.0882 0.011,-0.20946 0.011,-0.12127 0.0441,-0.25356 0.0331,-0.1323 0.0661,-0.25356 0.0441,-0.12127 0.0992,-0.22049 0.0551,-0.0992 0.11024,-0.15434 0.0551,-0.0661 0.13229,-0.0661 0.1323,0 0.31971,0.15434 0.18741,0.14332 0.48507,0.31971 0.30868,0.16536 0.76068,0.31971 0.45199,0.14331 1.12448,0.14331 0.60633,0 1.03628,-0.14331 0.44098,-0.15435 0.72761,-0.39688 0.28663,-0.25356 0.41892,-0.58429 0.14332,-0.33073 0.14332,-0.69453 0,-0.46302 -0.28663,-0.74965 -0.28664,-0.29766 -0.72761,-0.52917 -0.42995,-0.24254 -0.93707,-0.47405 -0.50711,-0.23151 -0.94809,-0.54019 -0.42995,-0.3197 -0.7276,-0.771702 -0.28663,-0.463021 -0.28663,-1.168578 0,-0.727605 0.28663,-1.344966 0.28663,-0.628386 0.80477,-1.080383 0.52917,-0.463022 1.25678,-0.716581 0.73862,-0.253559 1.63159,-0.253559 0.41893,0 0.80478,0.06615 0.39687,0.06615 0.7276,0.165364 0.33073,0.09922 0.57327,0.220487 0.24253,0.121267 0.3638,0.242535 0.12127,0.110243 0.12127,0.341754 z"
       id="path632"
       style="fill:#ffffff" />
  </g>
</svg>
