<?xml version="1.0" encoding="UTF-8" standalone="no"?>
<svg
   height="178.65694"
   width="923.07697"
   viewBox="-150 -48.38625 1000 64.834044"
   version="1.1"
   id="svg4"
   xmlns="http://www.w3.org/2000/svg"
   xmlnsSvg="http://www.w3.org/2000/svg">
  <defs
     id="defs8" />
  <path
     d="m -86.605256,77.8553 h -37.680994 v -93.933867 h -25.669 v -30.582958 h 25.668 v -21.76197 c 0,-25.787964 11.353,-44.282955 48.931994,-44.282955 7.948,0 20.426,1.602 20.426,1.602 v 28.397976 h -13.106 c -13.354,0 -18.568,4.061994 -18.568,15.291979 v 20.75297 h 31.174 l -2.776,30.582958 h -28.399 z M -0.14525566,-49.105522 c -0.549,0 -1.11399994,0.02 -1.67299994,0.034 -34.9400004,0 -50.9260004,26.281964 -50.9260004,63.589909 0,46.997934 20.736,65.80791 51.1990004,65.80791 17.4289996,0 28.8799996,-7.335991 35.8399996,-21.025973 V 77.8683 h 35.84 V -46.648525 h -35.84 v 19.148973 c -5.683,-12.319982 -17.454,-21.45997 -34.43999966,-21.60597 z m 9.11300006,29.422961 c 14.6749996,0 23.4829996,10.2359851 23.4829996,27.6469582 l 0.034,17.7829738 c 0,11.734983 -7.275,25.463965 -23.5169996,25.463965 -24.9700004,0 -24.3030004,-26.961964 -24.3030004,-35.941949 0,-30.206954 13.3040004,-34.951948 24.3030004,-34.951948 z M 84.608744,15.616384 c 0,-15.13097646 -0.724,-64.640906 63.780006,-64.640906 25.893,0 36.705,8.232988 36.705,8.232988 l -8.69,26.952964 c 0,0 -10.798,-5.945991 -24.868,-5.945991 -18.021,0 -29.52,10.4469851 -29.52,28.8279548 l 0.02,13.1799812 c 0,17.661976 11.095,29.451961 29.537,29.451961 12.818,0 24.632,-6.001991 24.632,-6.001991 l 8.668,26.389961 c 0,0 -9.886,8.284991 -36.303,8.284991 -61.418006,0 -63.960006,-44.41994 -63.960006,-64.731913 z M 395.23675,-49.071522 c 34.941,0 51.179,26.281964 51.179,63.589909 0,46.997934 -20.737,65.80791 -51.2,65.80791 -17.429,0 -30.313,-7.334991 -37.273,-21.025973 V 77.8683 l -35.389,-0.014 v -186.77475 l 37.574,-3.277 v 83.010901 c 5.423,-14.522979 23.245,-19.884973 35.11,-19.884973 z m -10.534,29.388961 c -14.675,0 -24.575,10.2359851 -24.575,27.6469582 l -0.035,17.7829738 c -0.022,11.734983 6.856,25.463965 24.61,25.463965 24.97,0 24.303,-26.961964 24.303,-35.941949 0,-30.206954 -13.303,-34.951948 -24.303,-34.951948 z m -134.415,-29.285961 c -39.63,0 -60.552,21.60697 -60.552,60.004916 v 7.133987 c 0,49.836931 29.381,62.667913 64.409,62.667913 34.047,0 49.458,-9.522986 49.458,-9.522986 l -7.031,-25.359966 c 0,0 -18.128,7.71299 -37.922,7.71299 -20.52,0 -29.345,-5.229993 -31.607,-24.949966 h 79.564 V 8.3733968 c 0,-41.6519398 -23.481,-57.3429188 -56.32,-57.3429188 z m 0.955,25.393967 c 13.718,0 22.607,8.411988 22.119,27.9209586 h -46.25 c 0.802,-20.5329706 10.388,-27.9199586 24.131,-27.9199586 z m 270.094,-25.564967 c -40.697,0 -62.122,22.93397 -62.122,64.032908 0,56.389922 36.932,65.466911 62.19,65.466911 36.976,0 61.576,-19.906974 61.576,-64.95491 0,-46.886933 -27.66,-64.544909 -61.644,-64.544909 z m -0.512,29.558961 c 17.895,0 24.986,13.3929817 24.986,28.6379548 V 22.164375 c 0,18.467975 -9.922,29.149961 -25.054,29.149961 -14.152,0 -24.098,-9.991985 -24.098,-29.149961 V 9.0573938 c 0,-20.4319668 11.835,-28.6379548 24.166,-28.6379548 z m 137.01,-29.558961 c -40.697,0 -62.122,22.93397 -62.122,64.032908 0,56.389922 36.932,65.466911 62.19,65.466911 36.975,0 61.576,-19.906974 61.576,-64.95491 0,-46.886933 -27.661,-64.544909 -61.644,-64.544909 z m -0.512,29.558961 c 17.895,0 24.985,13.3929817 24.985,28.6379548 V 22.164375 c 0,18.467975 -9.922,29.149961 -25.053,29.149961 -14.152,0 -24.098,-9.991985 -24.098,-29.149961 V 9.0573938 c 0,-20.4319668 11.835,-28.6379548 24.166,-28.6379548 z m 76.355,97.435861 v -186.77575 l 37.683,-3.276 V 12.99239 l 37.386,-59.652915 h 39.796 l -39,61.782912 40.502,62.732913 h -39.909 l -38.775,-60.913916 V 77.8553 Z"
     fill="#1877f2"
     id="path2"
     style="fill:#ffffff;fill-opacity:1"/>
</svg>
